<svg width="185" height="48" viewBox="0 0 185 48" fill="none" xmlns="http://www.w3.org/2000/svg">
<g clip-path="url(#clip0_84_1272)">
<path d="M34.5638 19.7773C28.6841 19.378 24.0035 14.7198 23.6022 8.86831L22.9941 0L22.386 8.86831C21.9848 14.7198 17.3042 19.378 11.4244 19.7773L0 20.3825L11.4244 20.9877C17.3042 21.387 21.9848 26.0452 22.386 31.8967L22.9941 40.765L23.6022 31.8967C24.0035 26.0452 28.6841 21.387 34.5638 20.9877L59 20.3825L34.5638 19.7773Z" fill="#46545F"/>
<path d="M31.4715 6.98118C32.3645 6.49327 33.2892 6.06056 34.2343 5.66706C35.182 5.27996 36.157 4.9512 37.1555 4.68571C38.1527 4.41493 39.1806 4.23768 40.2251 4.15015C41.2695 4.0679 42.3364 4.08363 43.398 4.26539C44.4584 4.4417 45.5111 4.80389 46.4694 5.36731C47.4279 5.92885 48.2725 6.7111 48.9114 7.63367C49.5559 8.55465 49.9912 9.60257 50.2536 10.6693C50.5166 11.7383 50.6191 12.829 50.6047 13.9049C50.5905 14.9817 50.4584 16.0427 50.2636 17.0847C50.1737 17.6085 50.0386 18.1185 49.9148 18.6325C49.7686 19.1381 49.6322 19.6484 49.4601 20.1442C49.3033 20.6468 49.1126 21.1344 48.9319 21.6271C48.836 21.8707 48.7351 22.112 48.6351 22.3539L48.4843 22.7164L48.3223 23.0731L47.9969 23.7863L47.65 24.4877L47.4761 24.8384L47.2922 25.1832L46.924 25.8728C45.912 27.6941 44.7559 29.427 43.5091 31.0867C42.2553 32.742 40.8868 34.3054 39.4441 35.7942C37.9932 37.275 36.4585 38.6751 34.843 39.9806C33.2205 41.2771 31.5159 42.477 29.7291 43.5513C27.9439 44.6268 26.066 45.5645 24.1098 46.3298C23.1261 46.7007 22.1271 47.0379 21.1041 47.3092C20.0777 47.5698 19.0327 47.775 17.9695 47.8957C16.9076 48.0217 15.8215 48.0341 14.7381 47.929C13.656 47.8204 12.568 47.5793 11.5454 47.1387C10.5244 46.7022 9.5699 46.0684 8.80492 45.2568C8.03977 44.4458 7.46499 43.4747 7.10179 42.4544C6.7406 41.4313 6.5664 40.3685 6.53284 39.3192C6.51531 38.7941 6.5294 38.2715 6.56795 37.753C6.60884 37.2347 6.68199 36.7216 6.77254 36.2138C6.86558 35.7064 6.98157 35.2053 7.10996 34.709C7.24543 34.2145 7.38906 33.7236 7.55609 33.2411C7.89307 32.2772 8.28317 31.3364 8.72824 30.4246C8.41364 31.3887 8.12309 32.3572 7.90816 33.3403C7.79513 33.8302 7.70058 34.323 7.61781 34.8163C7.54143 35.3106 7.47795 35.8056 7.43746 36.3009C7.39945 36.7964 7.38147 37.2913 7.37967 37.7837C7.38386 38.2761 7.41144 38.766 7.46772 39.2496C7.57838 40.2168 7.81958 41.1585 8.20552 42.0174C8.58841 42.877 9.12295 43.6505 9.79727 44.2709C10.4712 44.8917 11.2695 45.3606 12.1358 45.6694C13.0024 45.9782 13.9293 46.1413 14.8714 46.1867C15.8144 46.2301 16.7716 46.1691 17.723 46.0186C18.6746 45.8695 19.6193 45.6431 20.5518 45.3646C21.4836 45.0796 22.4017 44.7393 23.3068 44.3631C25.1058 43.5804 26.8593 42.6693 28.5254 41.6071C30.1947 40.552 31.8068 39.3979 33.334 38.1368C34.8666 36.8826 36.3273 35.538 37.709 34.1175C40.4823 31.2882 42.9392 28.1477 44.9308 24.7525L45.2929 24.1105L45.4742 23.7895L45.6452 23.4637L45.9872 22.8118L46.3076 22.1506L46.4676 21.8198L46.6161 21.4847L46.9142 20.8148C47.0964 20.3627 47.2903 19.9136 47.4495 19.4544C47.625 18.9994 47.7641 18.5356 47.9151 18.074C48.0438 17.6083 48.1807 17.1431 48.2832 16.6733C48.4996 15.7358 48.658 14.7871 48.7101 13.8409C48.7584 12.896 48.7225 11.9532 48.5464 11.0462C48.3717 10.1401 48.058 9.27281 47.5885 8.49901C47.1211 7.7239 46.4776 7.05818 45.7198 6.53871C44.9616 6.01733 44.0843 5.64495 43.1548 5.416C42.2268 5.17739 41.2481 5.07994 40.2633 5.0776C39.2773 5.07787 38.2836 5.17562 37.2952 5.33457C36.3065 5.49484 35.3237 5.72411 34.3542 6.00872C33.3809 6.28357 32.423 6.61958 31.4715 6.98118Z" fill="#46545F"/>
</g>
<path d="M88.6247 16.7025C89.2187 16.7025 89.7027 16.2185 89.7247 15.6025H94.1247C94.1027 18.6605 91.6607 21.1025 88.6247 21.1025H74.1927C70.6067 21.1025 67.7247 18.2205 67.7247 14.6345V12.1925C67.7247 8.60654 70.6067 5.72454 74.1927 5.70254H88.6247C91.6607 5.72454 94.1027 8.16654 94.1247 11.2025H89.7247C89.7027 10.6085 89.2187 10.1245 88.6247 10.1025H74.1927C73.0487 10.1245 72.1247 11.0485 72.1247 12.1925V14.6345C72.1247 15.7785 73.0487 16.7025 74.1927 16.7025H88.6247ZM117.096 5.70254H121.496V21.1025H115.556C113.84 21.1245 112.19 20.4425 110.98 19.2105L102.488 10.7185C102.092 10.3225 101.564 10.1025 101.014 10.1025H99.4958V21.1025H95.0958V5.70254H101.014C102.73 5.70254 104.38 6.38454 105.59 7.61654L114.082 16.1085C114.478 16.5045 115.006 16.7245 115.556 16.7025H117.096V5.70254ZM143.367 16.7025C143.961 16.7025 144.445 16.2185 144.467 15.6025H148.867C148.845 18.6605 146.403 21.1025 143.367 21.1025H128.935C125.349 21.1025 122.467 18.2205 122.467 14.6345V12.1925C122.467 8.60654 125.349 5.72454 128.935 5.70254H143.367C146.403 5.72454 148.845 8.16654 148.867 11.2025H144.467C144.445 10.6085 143.961 10.1245 143.367 10.1025H128.935C127.791 10.1245 126.867 11.0485 126.867 12.1925V14.6345C126.867 15.7785 127.791 16.7025 128.935 16.7025H143.367Z" fill="#46545F"/>
<path d="M70.7058 27.9327V31.7727C70.7058 31.8567 70.7298 31.9287 70.7898 31.9887L71.4618 32.6487C71.5218 32.7087 71.5938 32.7327 71.6778 32.7327H72.5538C72.6378 32.7327 72.6978 32.7087 72.7578 32.6487L73.4418 31.9887C73.4898 31.9527 73.5138 31.8567 73.5138 31.7727V31.4247C73.5138 31.0527 73.8018 30.7767 74.1738 30.7767C74.5458 30.7767 74.8098 31.0527 74.8098 31.4247V32.1567C74.8098 32.3367 74.7498 32.4807 74.6178 32.6127L73.4058 33.8607C73.2738 33.9927 73.1298 34.0527 72.9498 34.0527H71.2818C71.1018 34.0527 70.9458 33.9807 70.8138 33.8487L69.5778 32.6127C69.4458 32.4807 69.3858 32.3367 69.3858 32.1567V27.5487C69.3858 27.3687 69.4458 27.2247 69.5778 27.0927L70.8138 25.8567C70.9458 25.7247 71.1018 25.6527 71.2818 25.6527H72.9498C73.1298 25.6527 73.2738 25.7127 73.4058 25.8447L74.6178 27.0927C74.7498 27.2247 74.8098 27.3687 74.8098 27.5487V28.2807C74.8098 28.6527 74.5458 28.9287 74.1738 28.9287C73.8018 28.9287 73.5138 28.6527 73.5138 28.2807V27.9327C73.5138 27.8487 73.4898 27.7527 73.4418 27.7167L72.7578 27.0567C72.6978 26.9967 72.6378 26.9727 72.5538 26.9727H71.6778C71.5938 26.9727 71.5218 26.9967 71.4618 27.0567L70.7898 27.7167C70.7298 27.7767 70.7058 27.8487 70.7058 27.9327ZM81.2976 25.8567L82.3056 26.8407C82.4376 26.9727 82.4856 27.1527 82.4856 27.2967V32.4087C82.4856 32.5527 82.4376 32.7327 82.3056 32.8647L81.2976 33.8487C81.1776 33.9807 81.0216 34.0527 80.8296 34.0527H78.7176C78.5376 34.0527 78.3696 33.9807 78.2616 33.8487L77.2536 32.8647C77.1216 32.7327 77.0616 32.5527 77.0616 32.4087V27.2967C77.0616 27.1527 77.1216 26.9727 77.2536 26.8407L78.2616 25.8567C78.3696 25.7247 78.5376 25.6527 78.7176 25.6527H80.8296C81.0216 25.6527 81.1776 25.7247 81.2976 25.8567ZM80.6736 32.6487L81.0936 32.2167C81.1416 32.1567 81.1656 32.0847 81.1656 32.0127V27.6927C81.1656 27.6207 81.1416 27.5487 81.0936 27.4887L80.6736 27.0567C80.6136 26.9967 80.5416 26.9727 80.4576 26.9727H79.1016C79.0176 26.9727 78.9456 26.9967 78.8856 27.0567L78.4656 27.4887C78.4056 27.5487 78.3816 27.6087 78.3816 27.6927V32.0127C78.3816 32.0967 78.4056 32.1567 78.4656 32.2167L78.8856 32.6487C78.9456 32.7087 79.0176 32.7327 79.1016 32.7327H80.4576C80.5416 32.7327 80.6136 32.7087 80.6736 32.6487ZM88.8414 33.4047V28.0407C88.8414 27.9807 88.8294 27.9447 88.7934 27.9447C88.7814 27.9447 88.7574 27.9567 88.7214 27.9927L88.1814 28.5447C88.1214 28.6047 88.0974 28.6767 88.0974 28.7607V29.8527C88.0974 30.2247 87.8214 30.4887 87.4494 30.4887C87.0654 30.4887 86.7774 30.2247 86.7774 29.8527V28.7607C86.7774 28.6767 86.7534 28.5927 86.7054 28.5447L86.1774 27.9807C86.1534 27.9447 86.1294 27.9327 86.1054 27.9327C86.0694 27.9327 86.0574 27.9687 86.0574 28.0287V33.4047C86.0574 33.7767 85.7694 34.0527 85.3974 34.0527C85.0254 34.0527 84.7374 33.7767 84.7374 33.4047V26.3007C84.7374 25.9287 85.0254 25.6527 85.3974 25.6527C85.5774 25.6527 85.7454 25.7127 85.8774 25.8447L87.1494 27.1527C87.2334 27.2127 87.3414 27.2727 87.4494 27.2727C87.5574 27.2727 87.6534 27.2127 87.7374 27.1647L89.0334 25.8447C89.1654 25.7127 89.3214 25.6527 89.5134 25.6527C89.8854 25.6527 90.1614 25.9287 90.1614 26.3007V33.4047C90.1614 33.7767 89.8854 34.0527 89.5134 34.0527C89.1414 34.0527 88.8414 33.7767 88.8414 33.4047ZM96.5172 33.4047V28.0407C96.5172 27.9807 96.5052 27.9447 96.4692 27.9447C96.4572 27.9447 96.4332 27.9567 96.3972 27.9927L95.8572 28.5447C95.7972 28.6047 95.7732 28.6767 95.7732 28.7607V29.8527C95.7732 30.2247 95.4972 30.4887 95.1252 30.4887C94.7412 30.4887 94.4532 30.2247 94.4532 29.8527V28.7607C94.4532 28.6767 94.4292 28.5927 94.3812 28.5447L93.8532 27.9807C93.8292 27.9447 93.8052 27.9327 93.7812 27.9327C93.7452 27.9327 93.7332 27.9687 93.7332 28.0287V33.4047C93.7332 33.7767 93.4452 34.0527 93.0732 34.0527C92.7012 34.0527 92.4132 33.7767 92.4132 33.4047V26.3007C92.4132 25.9287 92.7012 25.6527 93.0732 25.6527C93.2532 25.6527 93.4212 25.7127 93.5532 25.8447L94.8252 27.1527C94.9092 27.2127 95.0172 27.2727 95.1252 27.2727C95.2332 27.2727 95.3292 27.2127 95.4132 27.1647L96.7092 25.8447C96.8412 25.7127 96.9972 25.6527 97.1892 25.6527C97.5612 25.6527 97.8372 25.9287 97.8372 26.3007V33.4047C97.8372 33.7767 97.5612 34.0527 97.1892 34.0527C96.8172 34.0527 96.5172 33.7767 96.5172 33.4047ZM105.513 27.5487V33.4047C105.513 33.7767 105.237 34.0527 104.865 34.0527C104.493 34.0527 104.193 33.7767 104.193 33.4047V31.1847C104.193 30.9567 104.025 30.7767 103.797 30.7767H101.805C101.577 30.7767 101.409 30.9567 101.409 31.1847V33.4047C101.409 33.7767 101.121 34.0527 100.749 34.0527C100.377 34.0527 100.089 33.7767 100.089 33.4047V27.5487C100.089 27.3687 100.149 27.2247 100.281 27.0927L101.529 25.8567C101.649 25.7247 101.793 25.6527 101.973 25.6527H103.641C103.809 25.6527 103.953 25.7127 104.085 25.8447L105.321 27.0927C105.453 27.2247 105.513 27.3687 105.513 27.5487ZM104.193 29.0487V27.9207C104.193 27.8367 104.169 27.7647 104.121 27.7167L103.449 27.0567C103.389 26.9967 103.329 26.9727 103.245 26.9727H102.369C102.285 26.9727 102.213 26.9967 102.153 27.0567L101.493 27.7167C101.433 27.7767 101.409 27.8367 101.409 27.9207V29.0487C101.409 29.2767 101.577 29.4567 101.805 29.4567H103.797C104.025 29.4567 104.193 29.2767 104.193 29.0487ZM109.013 25.9767L111.785 30.8247C111.809 30.8607 111.833 30.8847 111.845 30.8847C111.857 30.8847 111.869 30.8607 111.869 30.8007V26.3007C111.869 25.9287 112.169 25.6527 112.541 25.6527C112.913 25.6527 113.189 25.9287 113.189 26.3007V33.4047C113.189 33.7767 112.913 34.0527 112.541 34.0527C112.289 34.0527 112.085 33.9207 111.953 33.7287L109.169 28.8447C109.157 28.8087 109.133 28.7847 109.109 28.7847C109.097 28.7847 109.085 28.8087 109.085 28.8687V33.4047C109.085 33.7767 108.797 34.0527 108.425 34.0527C108.053 34.0527 107.765 33.7767 107.765 33.4047V26.3007C107.765 25.9287 108.053 25.6527 108.425 25.6527C108.665 25.6527 108.905 25.7847 109.013 25.9767ZM119.437 25.8447L120.673 27.0927C120.805 27.2247 120.865 27.3687 120.865 27.5487V32.1567C120.865 32.3367 120.805 32.4807 120.673 32.6127L119.437 33.8607C119.305 33.9927 119.161 34.0527 118.993 34.0527H116.101C115.729 34.0527 115.441 33.7647 115.441 33.3927V26.3127C115.441 25.9407 115.729 25.6527 116.101 25.6527H118.993C119.161 25.6527 119.305 25.7127 119.437 25.8447ZM118.801 32.6487L119.473 31.9887C119.521 31.9287 119.545 31.8567 119.545 31.7727V27.9327C119.545 27.8487 119.521 27.7767 119.473 27.7167L118.801 27.0567C118.741 26.9967 118.681 26.9727 118.597 26.9727H117.157C116.929 26.9727 116.761 27.1527 116.761 27.3807V32.3247C116.761 32.5527 116.929 32.7327 117.157 32.7327H118.597C118.681 32.7327 118.741 32.7087 118.801 32.6487ZM132.112 27.9327V31.7727C132.112 31.8567 132.136 31.9287 132.196 31.9887L132.868 32.6487C132.928 32.7087 133 32.7327 133.084 32.7327H133.96C134.044 32.7327 134.104 32.7087 134.164 32.6487L134.848 31.9887C134.896 31.9527 134.92 31.8567 134.92 31.7727V31.4247C134.92 31.0527 135.208 30.7767 135.58 30.7767C135.952 30.7767 136.216 31.0527 136.216 31.4247V32.1567C136.216 32.3367 136.156 32.4807 136.024 32.6127L134.812 33.8607C134.68 33.9927 134.536 34.0527 134.356 34.0527H132.688C132.508 34.0527 132.352 33.9807 132.22 33.8487L130.984 32.6127C130.852 32.4807 130.792 32.3367 130.792 32.1567V27.5487C130.792 27.3687 130.852 27.2247 130.984 27.0927L132.22 25.8567C132.352 25.7247 132.508 25.6527 132.688 25.6527H134.356C134.536 25.6527 134.68 25.7127 134.812 25.8447L136.024 27.0927C136.156 27.2247 136.216 27.3687 136.216 27.5487V28.2807C136.216 28.6527 135.952 28.9287 135.58 28.9287C135.208 28.9287 134.92 28.6527 134.92 28.2807V27.9327C134.92 27.8487 134.896 27.7527 134.848 27.7167L134.164 27.0567C134.104 26.9967 134.044 26.9727 133.96 26.9727H133.084C133 26.9727 132.928 26.9967 132.868 27.0567L132.196 27.7167C132.136 27.7767 132.112 27.8487 132.112 27.9327ZM142.704 25.8567L143.712 26.8407C143.844 26.9727 143.892 27.1527 143.892 27.2967V32.4087C143.892 32.5527 143.844 32.7327 143.712 32.8647L142.704 33.8487C142.584 33.9807 142.428 34.0527 142.236 34.0527H140.124C139.944 34.0527 139.776 33.9807 139.668 33.8487L138.66 32.8647C138.528 32.7327 138.468 32.5527 138.468 32.4087V27.2967C138.468 27.1527 138.528 26.9727 138.66 26.8407L139.668 25.8567C139.776 25.7247 139.944 25.6527 140.124 25.6527H142.236C142.428 25.6527 142.584 25.7247 142.704 25.8567ZM142.08 32.6487L142.5 32.2167C142.548 32.1567 142.572 32.0847 142.572 32.0127V27.6927C142.572 27.6207 142.548 27.5487 142.5 27.4887L142.08 27.0567C142.02 26.9967 141.948 26.9727 141.864 26.9727H140.508C140.424 26.9727 140.352 26.9967 140.292 27.0567L139.872 27.4887C139.812 27.5487 139.788 27.6087 139.788 27.6927V32.0127C139.788 32.0967 139.812 32.1567 139.872 32.2167L140.292 32.6487C140.352 32.7087 140.424 32.7327 140.508 32.7327H141.864C141.948 32.7327 142.02 32.7087 142.08 32.6487ZM147.392 25.9767L150.164 30.8247C150.188 30.8607 150.212 30.8847 150.224 30.8847C150.236 30.8847 150.248 30.8607 150.248 30.8007V26.3007C150.248 25.9287 150.548 25.6527 150.92 25.6527C151.292 25.6527 151.568 25.9287 151.568 26.3007V33.4047C151.568 33.7767 151.292 34.0527 150.92 34.0527C150.668 34.0527 150.464 33.9207 150.332 33.7287L147.548 28.8447C147.536 28.8087 147.512 28.7847 147.488 28.7847C147.476 28.7847 147.464 28.8087 147.464 28.8687V33.4047C147.464 33.7767 147.176 34.0527 146.804 34.0527C146.432 34.0527 146.144 33.7767 146.144 33.4047V26.3007C146.144 25.9287 146.432 25.6527 146.804 25.6527C147.044 25.6527 147.284 25.7847 147.392 25.9767ZM157.191 27.3807V33.4287C157.191 33.8007 156.915 34.0767 156.531 34.0767C156.159 34.0767 155.871 33.8007 155.871 33.4287V27.3807C155.871 27.1527 155.691 26.9727 155.463 26.9727H154.455C154.083 26.9727 153.807 26.6847 153.807 26.3127C153.807 25.9407 154.083 25.6527 154.455 25.6527H158.619C158.991 25.6527 159.255 25.9407 159.255 26.3127C159.255 26.6847 158.991 26.9727 158.619 26.9727H157.599C157.371 26.9727 157.191 27.1527 157.191 27.3807ZM164.651 30.7887H163.211C162.983 30.7887 162.815 30.9687 162.815 31.1967V33.4287C162.815 33.8007 162.527 34.0767 162.155 34.0767C161.783 34.0767 161.495 33.8007 161.495 33.4287V26.3127C161.495 25.9407 161.783 25.6527 162.155 25.6527H165.047C165.215 25.6527 165.371 25.7247 165.503 25.8567L166.739 27.0927C166.859 27.2127 166.919 27.3687 166.919 27.5487V28.8927C166.919 29.0727 166.859 29.2167 166.727 29.3487L166.247 29.8287C166.163 29.9127 166.127 30.0087 166.127 30.1167C166.127 30.2247 166.175 30.3447 166.259 30.4287L166.739 30.8967C166.871 31.0287 166.919 31.1727 166.919 31.3527V33.4287C166.919 33.8007 166.643 34.0767 166.271 34.0767C165.899 34.0767 165.599 33.8007 165.599 33.4287V31.7487C165.599 31.6887 165.575 31.5927 165.527 31.5447L164.855 30.8727C164.795 30.8127 164.735 30.7887 164.651 30.7887ZM164.855 29.3847L165.527 28.7247C165.575 28.6767 165.599 28.5927 165.599 28.5087V27.9327C165.599 27.8487 165.575 27.7647 165.527 27.7167L164.855 27.0567C164.795 26.9967 164.735 26.9727 164.651 26.9727H163.211C162.983 26.9727 162.815 27.1527 162.815 27.3807V29.0607C162.815 29.2887 162.983 29.4687 163.211 29.4687H164.651C164.735 29.4687 164.795 29.4447 164.855 29.3847ZM173.407 25.8567L174.415 26.8407C174.547 26.9727 174.595 27.1527 174.595 27.2967V32.4087C174.595 32.5527 174.547 32.7327 174.415 32.8647L173.407 33.8487C173.287 33.9807 173.131 34.0527 172.939 34.0527H170.827C170.647 34.0527 170.479 33.9807 170.371 33.8487L169.363 32.8647C169.231 32.7327 169.171 32.5527 169.171 32.4087V27.2967C169.171 27.1527 169.231 26.9727 169.363 26.8407L170.371 25.8567C170.479 25.7247 170.647 25.6527 170.827 25.6527H172.939C173.131 25.6527 173.287 25.7247 173.407 25.8567ZM172.783 32.6487L173.203 32.2167C173.251 32.1567 173.275 32.0847 173.275 32.0127V27.6927C173.275 27.6207 173.251 27.5487 173.203 27.4887L172.783 27.0567C172.723 26.9967 172.651 26.9727 172.567 26.9727H171.211C171.127 26.9727 171.055 26.9967 170.995 27.0567L170.575 27.4887C170.515 27.5487 170.491 27.6087 170.491 27.6927V32.0127C170.491 32.0967 170.515 32.1567 170.575 32.2167L170.995 32.6487C171.055 32.7087 171.127 32.7327 171.211 32.7327H172.567C172.651 32.7327 172.723 32.7087 172.783 32.6487ZM178.167 26.3007V32.3247C178.167 32.5527 178.347 32.7327 178.575 32.7327H181.635C182.007 32.7327 182.271 33.0207 182.271 33.3927C182.271 33.7647 182.007 34.0527 181.635 34.0527H177.507C177.135 34.0527 176.847 33.7647 176.847 33.3927V26.3007C176.847 25.9287 177.135 25.6527 177.507 25.6527C177.879 25.6527 178.167 25.9287 178.167 26.3007Z" fill="#46545F"/>
<path d="M128.012 30.5607V32.3967C128.012 32.5767 127.952 32.7327 127.82 32.8647L126.848 33.8487C126.728 33.9807 126.572 34.0527 126.38 34.0527H124.772C124.592 34.0527 124.424 33.9807 124.316 33.8487L123.308 32.8647C123.176 32.7327 123.116 32.5767 123.116 32.3967V30.8487C123.116 30.6687 123.176 30.5247 123.308 30.3927L123.548 30.1527C123.632 30.0687 123.668 29.9727 123.668 29.8527C123.668 29.7447 123.632 29.6487 123.548 29.5647L123.308 29.3247C123.176 29.1927 123.116 29.0487 123.116 28.8687V27.2967C123.116 27.1527 123.176 26.9727 123.308 26.8407L124.316 25.8567C124.424 25.7247 124.592 25.6527 124.772 25.6527H125.84C126.212 25.6527 126.476 25.9407 126.476 26.3127C126.476 26.6847 126.212 26.9727 125.84 26.9727H125.156C125.072 26.9727 125.012 26.9967 124.952 27.0567L124.52 27.4887C124.46 27.5487 124.436 27.6087 124.436 27.6807V28.4847C124.436 28.5687 124.46 28.6287 124.52 28.6887L124.952 29.1327C125.024 29.1927 125.096 29.2167 125.156 29.2167H126.668C126.704 29.2167 126.728 29.1927 126.728 29.1567V28.8687C126.728 28.4967 126.992 28.2327 127.364 28.2327C127.736 28.2327 128.012 28.4967 128.012 28.8687V29.1567C128.012 29.1927 128.036 29.2167 128.072 29.2167H128.348C128.72 29.2167 128.996 29.4807 128.996 29.8527C128.996 30.2247 128.72 30.5007 128.348 30.5007H128.072C128.036 30.5007 128.012 30.5247 128.012 30.5607ZM126.728 32.0247V30.5607C126.728 30.5247 126.704 30.5007 126.668 30.5007H125.156C125.096 30.5007 125.024 30.5247 124.952 30.5847L124.52 31.0287C124.46 31.0887 124.436 31.1487 124.436 31.2327V32.0247C124.436 32.0967 124.46 32.1567 124.52 32.2167L124.952 32.6487C125.012 32.7087 125.072 32.7327 125.156 32.7327H125.996C126.08 32.7327 126.14 32.7087 126.2 32.6487L126.644 32.2167C126.704 32.1447 126.728 32.0847 126.728 32.0247ZM72.7578 37.3807V43.4287C72.7578 43.8007 72.4818 44.0767 72.0978 44.0767C71.7258 44.0767 71.4378 43.8007 71.4378 43.4287V37.3807C71.4378 37.1527 71.2578 36.9727 71.0298 36.9727H70.0218C69.6498 36.9727 69.3738 36.6847 69.3738 36.3127C69.3738 35.9407 69.6498 35.6527 70.0218 35.6527H74.1858C74.5578 35.6527 74.8218 35.9407 74.8218 36.3127C74.8218 36.6847 74.5578 36.9727 74.1858 36.9727H73.1658C72.9378 36.9727 72.7578 37.1527 72.7578 37.3807ZM77.0616 43.3927V36.3127C77.0616 35.9407 77.3496 35.6527 77.7216 35.6527H81.8496C82.2216 35.6527 82.4856 35.9407 82.4856 36.3127C82.4856 36.6847 82.2216 36.9727 81.8496 36.9727H78.7896C78.5616 36.9727 78.3816 37.1527 78.3816 37.3807V38.7967C78.3816 39.0247 78.5616 39.2167 78.7896 39.2167H81.0576C81.4296 39.2167 81.7056 39.4807 81.7056 39.8527C81.7056 40.2247 81.4296 40.5007 81.0576 40.5007H78.7896C78.5616 40.5007 78.3816 40.6927 78.3816 40.9207V42.3247C78.3816 42.5527 78.5616 42.7327 78.7896 42.7327H81.8496C82.2216 42.7327 82.4856 43.0207 82.4856 43.3927C82.4856 43.7647 82.2216 44.0527 81.8496 44.0527H77.7216C77.3496 44.0527 77.0616 43.7647 77.0616 43.3927ZM86.0574 37.9327V41.7727C86.0574 41.8567 86.0814 41.9287 86.1414 41.9887L86.8134 42.6487C86.8734 42.7087 86.9454 42.7327 87.0294 42.7327H87.9054C87.9894 42.7327 88.0494 42.7087 88.1094 42.6487L88.7934 41.9887C88.8414 41.9527 88.8654 41.8567 88.8654 41.7727V41.4247C88.8654 41.0527 89.1534 40.7767 89.5254 40.7767C89.8974 40.7767 90.1614 41.0527 90.1614 41.4247V42.1567C90.1614 42.3367 90.1014 42.4807 89.9694 42.6127L88.7574 43.8607C88.6254 43.9927 88.4814 44.0527 88.3014 44.0527H86.6334C86.4534 44.0527 86.2974 43.9807 86.1654 43.8487L84.9294 42.6127C84.7974 42.4807 84.7374 42.3367 84.7374 42.1567V37.5487C84.7374 37.3687 84.7974 37.2247 84.9294 37.0927L86.1654 35.8567C86.2974 35.7247 86.4534 35.6527 86.6334 35.6527H88.3014C88.4814 35.6527 88.6254 35.7127 88.7574 35.8447L89.9694 37.0927C90.1014 37.2247 90.1614 37.3687 90.1614 37.5487V38.2807C90.1614 38.6527 89.8974 38.9287 89.5254 38.9287C89.1534 38.9287 88.8654 38.6527 88.8654 38.2807V37.9327C88.8654 37.8487 88.8414 37.7527 88.7934 37.7167L88.1094 37.0567C88.0494 36.9967 87.9894 36.9727 87.9054 36.9727H87.0294C86.9454 36.9727 86.8734 36.9967 86.8134 37.0567L86.1414 37.7167C86.0814 37.7767 86.0574 37.8487 86.0574 37.9327ZM97.8372 36.3007V43.4047C97.8372 43.7767 97.5612 44.0527 97.1892 44.0527C96.8052 44.0527 96.5172 43.7767 96.5172 43.4047V40.9087C96.5172 40.6807 96.3492 40.4887 96.1212 40.4887H94.1292C93.9012 40.4887 93.7332 40.6807 93.7332 40.9087V43.4047C93.7332 43.7767 93.4452 44.0527 93.0732 44.0527C92.7012 44.0527 92.4132 43.7767 92.4132 43.4047V36.3007C92.4132 35.9287 92.7012 35.6527 93.0732 35.6527C93.4452 35.6527 93.7332 35.9287 93.7332 36.3007V38.7967C93.7332 39.0247 93.9012 39.2167 94.1292 39.2167H96.1212C96.3492 39.2167 96.5172 39.0247 96.5172 38.7967V36.3007C96.5172 35.9287 96.8052 35.6527 97.1892 35.6527C97.5612 35.6527 97.8372 35.9287 97.8372 36.3007ZM101.337 35.9767L104.109 40.8247C104.133 40.8607 104.157 40.8847 104.169 40.8847C104.181 40.8847 104.193 40.8607 104.193 40.8007V36.3007C104.193 35.9287 104.493 35.6527 104.865 35.6527C105.237 35.6527 105.513 35.9287 105.513 36.3007V43.4047C105.513 43.7767 105.237 44.0527 104.865 44.0527C104.613 44.0527 104.409 43.9207 104.277 43.7287L101.493 38.8447C101.481 38.8087 101.457 38.7847 101.433 38.7847C101.421 38.7847 101.409 38.8087 101.409 38.8687V43.4047C101.409 43.7767 101.121 44.0527 100.749 44.0527C100.377 44.0527 100.089 43.7767 100.089 43.4047V36.3007C100.089 35.9287 100.377 35.6527 100.749 35.6527C100.989 35.6527 101.229 35.7847 101.337 35.9767ZM112.001 35.8567L113.009 36.8407C113.141 36.9727 113.189 37.1527 113.189 37.2967V42.4087C113.189 42.5527 113.141 42.7327 113.009 42.8647L112.001 43.8487C111.881 43.9807 111.725 44.0527 111.533 44.0527H109.421C109.241 44.0527 109.073 43.9807 108.965 43.8487L107.957 42.8647C107.825 42.7327 107.765 42.5527 107.765 42.4087V37.2967C107.765 37.1527 107.825 36.9727 107.957 36.8407L108.965 35.8567C109.073 35.7247 109.241 35.6527 109.421 35.6527H111.533C111.725 35.6527 111.881 35.7247 112.001 35.8567ZM111.377 42.6487L111.797 42.2167C111.845 42.1567 111.869 42.0847 111.869 42.0127V37.6927C111.869 37.6207 111.845 37.5487 111.797 37.4887L111.377 37.0567C111.317 36.9967 111.245 36.9727 111.161 36.9727H109.805C109.721 36.9727 109.649 36.9967 109.589 37.0567L109.169 37.4887C109.109 37.5487 109.085 37.6087 109.085 37.6927V42.0127C109.085 42.0967 109.109 42.1567 109.169 42.2167L109.589 42.6487C109.649 42.7087 109.721 42.7327 109.805 42.7327H111.161C111.245 42.7327 111.317 42.7087 111.377 42.6487ZM116.761 36.3007V42.3247C116.761 42.5527 116.941 42.7327 117.169 42.7327H120.229C120.601 42.7327 120.865 43.0207 120.865 43.3927C120.865 43.7647 120.601 44.0527 120.229 44.0527H116.101C115.729 44.0527 115.441 43.7647 115.441 43.3927V36.3007C115.441 35.9287 115.729 35.6527 116.101 35.6527C116.473 35.6527 116.761 35.9287 116.761 36.3007ZM127.352 35.8567L128.36 36.8407C128.492 36.9727 128.54 37.1527 128.54 37.2967V42.4087C128.54 42.5527 128.492 42.7327 128.36 42.8647L127.352 43.8487C127.232 43.9807 127.076 44.0527 126.884 44.0527H124.772C124.592 44.0527 124.424 43.9807 124.316 43.8487L123.308 42.8647C123.176 42.7327 123.116 42.5527 123.116 42.4087V37.2967C123.116 37.1527 123.176 36.9727 123.308 36.8407L124.316 35.8567C124.424 35.7247 124.592 35.6527 124.772 35.6527H126.884C127.076 35.6527 127.232 35.7247 127.352 35.8567ZM126.728 42.6487L127.148 42.2167C127.196 42.1567 127.22 42.0847 127.22 42.0127V37.6927C127.22 37.6207 127.196 37.5487 127.148 37.4887L126.728 37.0567C126.668 36.9967 126.596 36.9727 126.512 36.9727H125.156C125.072 36.9727 125 36.9967 124.94 37.0567L124.52 37.4887C124.46 37.5487 124.436 37.6087 124.436 37.6927V42.0127C124.436 42.0967 124.46 42.1567 124.52 42.2167L124.94 42.6487C125 42.7087 125.072 42.7327 125.156 42.7327H126.512C126.596 42.7327 126.668 42.7087 126.728 42.6487ZM134.896 37.8247V37.6807C134.896 37.6207 134.872 37.5487 134.824 37.4887L134.404 37.0567C134.344 36.9967 134.272 36.9727 134.188 36.9727H132.832C132.748 36.9727 132.676 36.9967 132.616 37.0567L132.196 37.4887C132.136 37.5487 132.112 37.6087 132.112 37.6807V42.0247C132.112 42.0967 132.136 42.1567 132.196 42.2167L132.616 42.6487C132.676 42.7087 132.748 42.7327 132.832 42.7327H134.188C134.272 42.7327 134.344 42.7087 134.404 42.6487L134.824 42.2167C134.872 42.1567 134.896 42.0847 134.896 42.0247V40.9087C134.896 40.6807 134.728 40.5007 134.5 40.5007H133.816C133.468 40.5007 133.168 40.2247 133.168 39.8527C133.168 39.4807 133.468 39.2167 133.816 39.2167H135.568C135.94 39.2167 136.216 39.4807 136.216 39.8527V42.3967C136.216 42.5767 136.156 42.7327 136.036 42.8647L135.028 43.8487C134.908 43.9807 134.752 44.0527 134.56 44.0527H132.448C132.268 44.0527 132.1 43.9807 131.992 43.8487L130.984 42.8647C130.852 42.7327 130.792 42.5767 130.792 42.3967V37.2967C130.792 37.1527 130.852 36.9727 130.984 36.8407L131.992 35.8567C132.1 35.7247 132.268 35.6527 132.448 35.6527H134.56C134.752 35.6527 134.908 35.7247 135.028 35.8567L136.036 36.8407C136.168 36.9727 136.216 37.1527 136.216 37.2967V37.8247C136.216 38.1967 135.94 38.4607 135.568 38.4607C135.196 38.4607 134.896 38.1967 134.896 37.8247ZM142.74 44.0527H139.632C139.26 44.0527 138.984 43.7767 138.984 43.4047C138.984 43.0327 139.26 42.7567 139.632 42.7567H140.112C140.34 42.7567 140.52 42.5767 140.52 42.3487V37.3567C140.52 37.1287 140.34 36.9487 140.112 36.9487H139.632C139.26 36.9487 138.984 36.6727 138.984 36.3007C138.984 35.9287 139.26 35.6527 139.632 35.6527H142.74C143.112 35.6527 143.376 35.9287 143.376 36.3007C143.376 36.6727 143.112 36.9487 142.74 36.9487H142.248C142.02 36.9487 141.84 37.1287 141.84 37.3567V42.3487C141.84 42.5767 142.02 42.7567 142.248 42.7567H142.74C143.112 42.7567 143.376 43.0327 143.376 43.4047C143.376 43.7767 143.112 44.0527 142.74 44.0527ZM146.144 43.3927V36.3127C146.144 35.9407 146.432 35.6527 146.804 35.6527H150.932C151.304 35.6527 151.568 35.9407 151.568 36.3127C151.568 36.6847 151.304 36.9727 150.932 36.9727H147.872C147.644 36.9727 147.464 37.1527 147.464 37.3807V38.7967C147.464 39.0247 147.644 39.2167 147.872 39.2167H150.14C150.512 39.2167 150.788 39.4807 150.788 39.8527C150.788 40.2247 150.512 40.5007 150.14 40.5007H147.872C147.644 40.5007 147.464 40.6927 147.464 40.9207V42.3247C147.464 42.5527 147.644 42.7327 147.872 42.7327H150.932C151.304 42.7327 151.568 43.0207 151.568 43.3927C151.568 43.7647 151.304 44.0527 150.932 44.0527H146.804C146.432 44.0527 146.144 43.7647 146.144 43.3927ZM157.923 37.8247V37.6807C157.923 37.5967 157.899 37.5367 157.851 37.4887L157.419 37.0567C157.359 36.9967 157.299 36.9727 157.227 36.9727H155.847C155.775 36.9727 155.715 36.9967 155.655 37.0567L155.223 37.4887C155.163 37.5487 155.139 37.6087 155.139 37.6807V38.4847C155.139 38.5687 155.163 38.6287 155.223 38.6887L155.655 39.1327C155.727 39.1927 155.787 39.2167 155.847 39.2167H157.599C157.779 39.2167 157.935 39.2767 158.055 39.3967L159.063 40.4287C159.183 40.5487 159.243 40.6927 159.243 40.8727V42.4207C159.243 42.5647 159.195 42.7327 159.063 42.8647L158.055 43.8487C157.935 43.9807 157.779 44.0527 157.599 44.0527H155.475C155.295 44.0527 155.127 43.9807 155.019 43.8487L154.011 42.8647C153.879 42.7327 153.819 42.5647 153.819 42.4207V41.8927C153.819 41.5447 154.107 41.2927 154.479 41.2927C154.851 41.2927 155.139 41.5447 155.139 41.8927V42.0247C155.139 42.1087 155.163 42.1687 155.223 42.2287L155.655 42.6487C155.715 42.7087 155.775 42.7327 155.847 42.7327H157.227C157.299 42.7327 157.359 42.7087 157.419 42.6487L157.851 42.2287C157.899 42.1807 157.923 42.0847 157.923 42.0247V41.2687C157.923 41.1847 157.899 41.1127 157.851 41.0527L157.419 40.6207C157.347 40.5607 157.287 40.5367 157.227 40.5367H155.475C155.283 40.5367 155.127 40.4767 155.019 40.3567L154.011 39.3247C153.879 39.1807 153.819 39.0247 153.819 38.8687V37.2967C153.819 37.1527 153.879 36.9727 154.011 36.8407L155.019 35.8567C155.127 35.7247 155.295 35.6527 155.475 35.6527H157.599C157.779 35.6527 157.935 35.7247 158.055 35.8567L159.063 36.8407C159.195 36.9727 159.243 37.1527 159.243 37.2967V37.8247C159.243 38.1967 158.967 38.4607 158.595 38.4607C158.223 38.4607 157.923 38.1967 157.923 37.8247Z" fill="#46545F" fill-opacity="0.45"/>
<defs>
<clipPath id="clip0_84_1272">
<rect width="59" height="48" fill="white"/>
</clipPath>
</defs>
</svg>
