<svg width="30" height="12" viewBox="0 0 30 12" fill="none" xmlns="http://www.w3.org/2000/svg">
<path d="M4.28472 11.1528C3.44676 11.1528 2.76389 11.0671 2.23611 10.8958C1.70833 10.7245 1.30093 10.4838 1.01389 10.1736C0.731481 9.8588 0.534722 9.48611 0.423611 9.05556C0.31713 8.625 0.263889 8.14815 0.263889 7.625V4.47222C0.263889 3.93981 0.314815 3.45139 0.416667 3.00694C0.523148 2.55787 0.717593 2.16898 1 1.84028C1.28704 1.51157 1.69213 1.25694 2.21528 1.07639C2.74306 0.895833 3.42824 0.805555 4.27083 0.805555C5.03009 0.805555 5.65509 0.875 6.14583 1.01389C6.63657 1.14815 7.01852 1.34954 7.29167 1.61806C7.56481 1.88657 7.75463 2.21991 7.86111 2.61806C7.97222 3.01157 8.02778 3.46759 8.02778 3.98611V4.07639L6.70139 4.19444V4.00694C6.70139 3.40046 6.62269 2.94907 6.46528 2.65278C6.3125 2.35648 6.05787 2.16204 5.70139 2.06944C5.34491 1.97685 4.86806 1.93056 4.27083 1.93056C3.68287 1.93056 3.19676 1.99769 2.8125 2.13194C2.42824 2.26157 2.1412 2.49306 1.95139 2.82639C1.76157 3.15509 1.66667 3.61806 1.66667 4.21528V7.84028C1.66667 8.43287 1.76389 8.88657 1.95833 9.20139C2.15278 9.5162 2.44444 9.7338 2.83333 9.85417C3.22685 9.96991 3.71991 10.0278 4.3125 10.0278C4.89583 10.0278 5.36111 9.98843 5.70833 9.90972C6.06019 9.83102 6.3125 9.65278 6.46528 9.375C6.62269 9.09259 6.70139 8.65278 6.70139 8.05556V7.88889H8.02778V7.95833C8.02778 8.46296 7.97917 8.91435 7.88194 9.3125C7.78935 9.70602 7.61343 10.0394 7.35417 10.3125C7.09491 10.5856 6.71759 10.794 6.22222 10.9375C5.73148 11.081 5.08565 11.1528 4.28472 11.1528ZM10.625 0.958333H11.6875L17.6181 9.24306L17.4375 9.29861V0.958333H18.6667V11H17.4236L11.6736 3.08333L11.8542 3.02083V11H10.625V0.958333ZM25.4653 11.1528C24.6273 11.1528 23.9444 11.0671 23.4167 10.8958C22.8889 10.7245 22.4815 10.4838 22.1944 10.1736C21.912 9.8588 21.7153 9.48611 21.6042 9.05556C21.4977 8.625 21.4444 8.14815 21.4444 7.625V4.47222C21.4444 3.93981 21.4954 3.45139 21.5972 3.00694C21.7037 2.55787 21.8981 2.16898 22.1806 1.84028C22.4676 1.51157 22.8727 1.25694 23.3958 1.07639C23.9236 0.895833 24.6088 0.805555 25.4514 0.805555C26.2106 0.805555 26.8356 0.875 27.3264 1.01389C27.8171 1.14815 28.1991 1.34954 28.4722 1.61806C28.7454 1.88657 28.9352 2.21991 29.0417 2.61806C29.1528 3.01157 29.2083 3.46759 29.2083 3.98611V4.07639L27.8819 4.19444V4.00694C27.8819 3.40046 27.8032 2.94907 27.6458 2.65278C27.4931 2.35648 27.2384 2.16204 26.8819 2.06944C26.5255 1.97685 26.0486 1.93056 25.4514 1.93056C24.8634 1.93056 24.3773 1.99769 23.9931 2.13194C23.6088 2.26157 23.3218 2.49306 23.1319 2.82639C22.9421 3.15509 22.8472 3.61806 22.8472 4.21528V7.84028C22.8472 8.43287 22.9444 8.88657 23.1389 9.20139C23.3333 9.5162 23.625 9.7338 24.0139 9.85417C24.4074 9.96991 24.9005 10.0278 25.4931 10.0278C26.0764 10.0278 26.5417 9.98843 26.8889 9.90972C27.2407 9.83102 27.4931 9.65278 27.6458 9.375C27.8032 9.09259 27.8819 8.65278 27.8819 8.05556V7.88889H29.2083V7.95833C29.2083 8.46296 29.1597 8.91435 29.0625 9.3125C28.9699 9.70602 28.794 10.0394 28.5347 10.3125C28.2755 10.5856 27.8981 10.794 27.4028 10.9375C26.912 11.081 26.2662 11.1528 25.4653 11.1528Z" fill="white"/>
</svg>
